<?xml version="1.0" encoding="UTF-8" standalone="no"?>
<svg
   xmlns:dc="http://purl.org/dc/elements/1.1/"
   xmlns:cc="http://creativecommons.org/ns#"
   xmlns:rdf="http://www.w3.org/1999/02/22-rdf-syntax-ns#"
   xmlns:svg="http://www.w3.org/2000/svg"
   xmlns="http://www.w3.org/2000/svg"
   xmlns:sodipodi="http://sodipodi.sourceforge.net/DTD/sodipodi-0.dtd"
   xmlns:inkscape="http://www.inkscape.org/namespaces/inkscape"
   width="580"
   height="580"
   id="svg2"
   version="1.1"
   inkscape:version="1.0.2 (e86c870879, 2021-01-15)"
   sodipodi:docname="Left-Facing_Armenian_Eternity_Sign_UC_058E_SVG.svg">
  <defs
     id="defs4">
    <filter
       inkscape:menu-tooltip="Glowing metal texture"
       inkscape:menu="Bevels"
       inkscape:label="Glowing Metal"
       style="color-interpolation-filters:sRGB;"
       id="filter875">
      <feGaussianBlur
         stdDeviation="3"
         result="result10"
         id="feGaussianBlur857" />
      <feBlend
         in2="SourceGraphic"
         result="result5"
         mode="multiply"
         in="result10"
         id="feBlend859" />
      <feComposite
         in2="SourceGraphic"
         in="result5"
         result="fbSourceGraphic"
         operator="over"
         id="feComposite861" />
      <feGaussianBlur
         result="result9"
         stdDeviation="5"
         id="feGaussianBlur863" />
      <feSpecularLighting
         in="result9"
         result="result1"
         lighting-color="rgb(255,255,255)"
         surfaceScale="1"
         specularConstant="2.2"
         specularExponent="45"
         id="feSpecularLighting867">
        <fePointLight
           x="-5000"
           y="-10000"
           z="20000"
           id="fePointLight865" />
      </feSpecularLighting>
      <feComposite
         in2="fbSourceGraphic"
         in="result1"
         result="result2"
         operator="in"
         id="feComposite869" />
      <feComposite
         in="result2"
         result="result4"
         operator="arithmetic"
         k2="2"
         k3="0.8"
         in2="fbSourceGraphic"
         id="feComposite871" />
      <feBlend
         in="result4"
         in2="result4"
         mode="multiply"
         id="feBlend873" />
    </filter>
  </defs>
  <sodipodi:namedview
     id="base"
     pagecolor="#ffffff"
     bordercolor="#666666"
     borderopacity="1.0"
     inkscape:pageopacity="0.0"
     inkscape:pageshadow="2"
     inkscape:zoom="1.0109622"
     inkscape:cx="162.02587"
     inkscape:cy="325.30379"
     inkscape:document-units="px"
     inkscape:current-layer="layer1"
     showgrid="false"
     inkscape:window-width="1920"
     inkscape:window-height="1014"
     inkscape:window-x="0"
     inkscape:window-y="0"
     inkscape:window-maximized="1"
     inkscape:document-rotation="0" />
  <metadata
     id="metadata7">
    <rdf:RDF>
      <cc:Work
         rdf:about="">
        <dc:format>image/svg+xml</dc:format>
        <dc:type
           rdf:resource="http://purl.org/dc/dcmitype/StillImage" />
        <dc:title></dc:title>
      </cc:Work>
    </rdf:RDF>
  </metadata>
  <g
     inkscape:label="Layer 1"
     inkscape:groupmode="layer"
     id="layer1"
     transform="translate(0,-520.36218)">
    <g
       id="g2989"
       transform="translate(-53.919645,527.43234)"
       style="fill:#ad0000;fill-opacity:1;filter:url(#filter875)">
      <g
         style="font-style:normal;font-weight:normal;font-size:547.559px;font-family:'Arian Grqi';text-align:start;text-anchor:start;fill:#ad0000;fill-opacity:1"
         id="text2991">
        <path
           d="m 351.55114,513.07684 c -13.54611,-9e-5 -25.84479,-2.71828 -36.89609,-8.15457 -11.05068,-5.43645 -20.54206,-12.96717 -28.47415,-22.59217 -7.93143,-9.62511 -14.08077,-21.07714 -18.44804,-34.35613 -4.36657,-13.27904 -6.55004,-27.76118 -6.55039,-43.44648 3.5e-4,-29.05339 5.08024,-52.62586 15.23968,-70.71749 10.16013,-18.09145 24.95419,-30.16733 44.38225,-36.22768 -7.84234,11.4076 -13.59064,22.9042 -17.24491,34.48982 -3.65364,11.58581 -5.48062,23.0824 -5.48094,34.48982 3.2e-4,9.98159 1.51538,19.96313 4.54517,29.94465 3.03043,9.98156 7.21911,19.60662 12.56606,28.87519 5.34755,9.26857 11.67514,18.00242 18.98277,26.20157 7.30819,8.19909 15.23995,15.59612 23.7953,22.19112 8.55586,6.5949 17.60163,12.16495 27.13733,16.71018 9.53617,4.5451 19.11666,7.79801 28.74152,9.75875 -8.73365,4.45597 -18.22502,7.70888 -28.47415,9.75875 -10.24867,2.04969 -21.52247,3.07458 -33.82141,3.07467 z M 114.13286,290.36352 c 5e-4,-13.54624 2.71869,-25.84492 8.15457,-36.89608 5.43687,-11.05082 12.96758,-20.54219 22.59217,-28.47415 9.62552,-7.93156 21.07756,-14.0809 34.35613,-18.44804 13.27945,-4.36671 27.7616,-6.55017 43.44648,-6.55039 29.0538,2.2e-4 52.62627,5.08011 70.71749,15.23968 18.09186,10.15999 30.16774,24.95406 36.22768,44.38225 -11.40719,-7.84247 -22.90378,-13.54621 -34.48982,-17.11123 -11.58539,-3.56465 -23.08199,-5.34707 -34.48982,-5.34726 -9.98118,1.9e-4 -20.00728,1.51525 -30.07833,4.54517 -10.07027,3.0303 -19.73989,7.26354 -29.00887,12.69974 -9.26816,5.43655 -18.04657,11.80869 -26.33525,19.11645 -8.2878,7.30806 -15.7294,15.23982 -22.32481,23.7953 -6.59448,8.55573 -12.11997,17.55694 -16.5765,27.00366 -4.45556,9.44691 -7.57479,18.89372 -9.3577,28.34047 -4.45555,-8.73378 -7.70847,-18.18059 -9.75875,-28.34047 -2.04928,-10.15968 -3.07417,-21.47804 -3.07467,-33.9551 z m 460.13159,-14.70496 c 4e-5,13.54653 -2.71814,25.84521 -8.15457,36.89609 -5.43632,11.0511 -12.96704,20.54247 -22.59217,28.47415 -9.62498,7.93184 -21.07701,14.08118 -34.35613,18.44804 -13.27891,4.36699 -27.76105,6.55045 -43.44648,6.55039 -29.23149,6e-5 -52.84853,-5.07983 -70.85117,-15.23968 -18.0022,-10.15971 -30.12264,-24.95378 -36.36136,-44.38225 11.40773,7.84276 22.90433,13.59105 34.48982,17.24491 11.58594,3.65406 23.08253,5.48103 34.48982,5.48094 9.98172,9e-5 19.96326,-1.51496 29.94464,-4.54517 9.9817,-3.03001 19.60676,-7.21869 28.8752,-12.56606 9.2687,-5.34714 18.04711,-11.67472 26.33525,-18.98277 8.28834,-7.30778 15.72994,-15.23954 22.3248,-23.7953 6.59503,-8.55545 12.16508,-17.60122 16.71018,-27.13733 4.54523,-9.53575 7.79815,-19.11625 9.75875,-28.74152 4.4561,8.73406 7.70901,18.22544 9.75875,28.47415 2.04982,10.24909 3.07471,21.52288 3.07467,33.82141 z M 336.84617,52.94525 c 13.54666,3.71e-4 25.84534,2.718558 36.89609,8.154569 11.05123,5.436737 20.54261,12.967452 28.47415,22.592167 7.93197,9.625396 14.08131,21.077434 18.44804,34.356134 4.36712,13.27932 6.55058,27.76146 6.55039,43.44648 1.9e-4,29.23191 -5.0797,52.84894 -15.23968,70.85117 -10.15958,18.00261 -24.95365,30.12305 -44.38225,36.36136 7.84289,-11.40732 13.54663,-22.90391 17.11123,-34.48982 3.56507,-11.58552 5.34748,-23.08212 5.34726,-34.48982 2.2e-4,-15.15032 -3.29725,-30.07807 -9.89243,-44.78329 C 373.56426,140.23953 364.83041,126.73771 353.9574,114.43872 343.08492,102.14035 330.74168,91.668646 316.92764,83.023579 303.1142,74.379194 288.98854,68.630897 274.55061,65.77867 c 8.73419,-4.455685 18.18101,-7.708598 28.34047,-9.758747 10.1601,-2.049411 21.47845,-3.074302 33.95509,-3.074673 z m 165.23029,62.29556 c 8.19924,8.37767 14.30402,17.55712 18.31436,27.53838 4.01054,9.98182 6.01576,20.40897 6.01567,31.28146 9e-5,13.72487 -3.1637,27.67229 -9.49139,41.8423 -6.32748,14.17043 -15.64061,27.40488 -27.93942,39.70339 -14.25922,14.43776 -28.42944,25.17682 -42.51071,32.21724 -14.08093,7.04068 -27.80554,10.56096 -41.17389,10.56083 -11.94198,1.3e-4 -23.5277,-2.94086 -34.75718,-8.82297 16.57673,-3.20822 31.148,-8.68916 43.71384,-16.44282 12.56625,-7.75337 23.08251,-17.20018 31.54883,-28.34047 8.46665,-11.13993 14.79423,-23.7951 18.98276,-37.96554 4.18884,-14.17 6.28318,-29.27599 6.28303,-45.31801 1.5e-4,-16.21974 -1.96051,-31.10293 -5.88198,-44.64961 -3.92117,-13.54607 -9.62491,-25.75563 -17.11123,-36.628722 9.44698,3.030454 18.53731,7.397378 27.27102,13.100783 8.73399,5.704068 17.64608,13.011979 26.73629,21.923759 z m -325.64804,9.89243 c 8.37781,-8.19882 17.55726,-14.3036 27.53838,-18.31436 9.98196,-4.01012 20.31998,-6.01534 31.0141,-6.01567 13.90324,3.3e-4 27.93978,3.16412 42.10966,9.49139 14.17056,6.32789 27.40501,15.64103 39.7034,27.93942 14.25964,14.25963 24.90958,28.38529 31.94986,42.37703 7.04082,13.99222 10.5611,27.67227 10.56084,41.0402 2.6e-4,12.12065 -2.94073,23.79548 -8.82298,35.02455 -3.20808,-16.57632 -8.64445,-31.14758 -16.30913,-43.71384 -7.66412,-12.56583 -17.11093,-23.0821 -28.34047,-31.54883 -11.22892,-8.46624 -23.88409,-14.79382 -37.96554,-18.98276 -14.08075,-4.18842 -29.14218,-6.28276 -45.18433,-6.28303 -16.21961,2.7e-4 -31.14736,1.96093 -44.78329,5.88198 -13.63506,3.92158 -25.88918,9.62532 -36.7624,17.11123 3.03058,-9.44657 7.39751,-18.5369 13.10078,-27.27102 5.7042,-8.73357 13.10123,-17.64566 22.19112,-26.73629 z m 9.89243,325.64804 c -8.37693,-8.37739 -14.52627,-17.55684 -18.44804,-27.53838 -3.92087,-9.98154 -5.88153,-20.31956 -5.88199,-31.0141 4.6e-4,-13.90283 3.16425,-27.89481 9.49139,-41.97598 6.32803,-14.08103 15.64116,-27.36004 27.93942,-39.83708 14.08152,-14.25922 28.0735,-24.90917 41.97598,-31.94987 13.90324,-7.0404 27.53873,-10.56067 40.90653,-10.56083 12.29902,1.6e-4 24.06297,2.94115 35.2919,8.82298 -16.57618,3.2085 -31.10288,8.64487 -43.58015,16.30913 -12.47658,7.66453 -22.94829,17.11135 -31.41515,28.34047 -8.4661,11.22934 -14.79369,23.8845 -18.98276,37.96554 -4.18829,14.08116 -6.28263,29.14259 -6.28303,45.18433 4e-4,16.22002 1.9165,31.10321 5.7483,44.64961 3.83259,13.54635 9.49177,25.75591 16.97755,36.62872 -9.2682,-3.03017 -18.26941,-7.35253 -27.00366,-12.9671 -8.73344,-5.61466 -17.64553,-12.96714 -26.73629,-22.05744 z m 325.64804,-9.89243 c -8.37726,8.37735 -17.55671,14.52669 -27.53838,18.44804 -9.98141,3.92129 -20.40855,5.88195 -31.28146,5.88199 -13.72446,-4e-5 -27.62731,-3.16384 -41.70862,-9.49139 -14.08089,-6.32761 -27.35991,-15.64074 -39.83708,-27.93942 -14.43733,-14.25935 -25.1764,-28.34045 -32.21723,-42.24334 -7.04027,-13.90282 -10.56054,-27.53832 -10.56083,-40.90653 2.9e-4,-12.12036 2.94128,-23.7952 8.82297,-35.02454 3.20864,16.57659 8.68957,31.1033 16.44282,43.58015 7.75378,12.477 17.2006,22.9487 28.34047,31.41515 11.14035,8.46652 23.79551,14.7941 37.96554,18.98276 14.17042,4.18871 29.27641,6.28305 45.31801,6.28303 16.22016,2e-5 31.10334,-1.91608 44.64961,-5.7483 13.54648,-3.83218 25.75604,-9.49136 36.62872,-16.97755 -5.70366,18.00246 -17.3785,35.91576 -35.02454,53.73995 z M 519.98978,97.060132 C 506.26526,83.157601 491.51575,72.864139 475.74121,66.179714 459.96696,59.496006 443.16767,55.886611 425.3433,55.351516 414.11426,46.261555 401.05805,39.265566 386.17463,34.363527 c -14.88295,-4.901259 -31.32576,-7.352083 -49.32846,-7.352481 -38.14345,3.98e-4 -69.95961,12.477322 -95.44856,37.430809 -14.79369,1.426295 -29.18671,5.748658 -43.17911,12.967102 -13.99156,7.219139 -27.31513,17.156118 -39.97076,29.810963 -13.9024,13.90318 -24.24042,28.69725 -31.0141,44.38225 -6.77269,15.68555 -10.33753,32.44027 -10.69451,50.26423 -9.26807,11.22945 -16.30862,24.28566 -21.121673,39.16867 -4.81201,14.88337 -7.21827,31.32617 -7.2188,49.32845 5.3e-4,19.25025 3.11976,36.7625 9.3577,52.53682 6.238983,15.77448 15.507553,30.07838 27.805743,42.91175 1.42643,14.7941 5.74879,29.14257 12.9671,43.04543 7.21928,13.90285 17.24538,27.27099 30.07833,40.10444 13.72507,13.90281 28.38545,24.19627 43.9812,30.88041 15.59656,6.684 32.39585,10.29339 50.39792,10.8282 11.40782,9.09025 24.55315,16.08624 39.43603,20.98799 14.8835,4.90154 31.3263,7.35237 49.32846,7.35248 19.42861,-1.1e-4 36.98543,-3.1639 52.67049,-9.49138 15.68549,-6.32769 29.94483,-15.64082 42.77807,-27.93943 14.61599,-1.42601 28.9199,-5.70381 42.91175,-12.83342 13.9921,-7.12973 27.4048,-17.11127 40.23812,-29.94464 13.90294,-13.72465 24.19641,-28.4296 30.88042,-44.11489 6.68412,-15.68526 10.29351,-32.43999 10.82819,-50.26423 9.09038,-11.40741 16.08637,-24.55274 20.98799,-39.43603 4.90167,-14.88308 7.3525,-31.32589 7.35248,-49.32846 2e-5,-19.24996 -3.16377,-36.76221 -9.49138,-52.53681 -6.32756,-15.7742 -15.64069,-30.0781 -27.93943,-42.91175 -1.42587,-14.61558 -5.70368,-28.91948 -12.83342,-42.91175 -7.1296,-13.99169 -17.11114,-27.40438 -29.94464,-40.238118 z"
           style="font-style:normal;font-weight:normal;font-size:547.559px;font-family:'Arian Grqi';text-align:start;text-anchor:start;fill:#ad0000;fill-opacity:1"
           id="path3015"
           inkscape:connector-curvature="0" />
      </g>
      <text
         id="text2993"
         style="font-style:normal;font-weight:normal;font-size:130.285px;font-family:'Arian Grqi';text-align:start;text-anchor:start;fill:#ad0000;fill-opacity:1"
         y="113.78338"
         x="130.28548"
         xml:space="preserve" />
      <text
         id="text2995"
         style="font-style:normal;font-weight:normal;font-size:130.285px;line-height:0%;font-family:'Arian Grqi';text-align:start;text-anchor:start;fill:#ad0000;fill-opacity:1"
         y="113.78338"
         x="260.57095"
         xml:space="preserve"> </text>
    </g>
  </g>
</svg>
