<?xml version="1.0" encoding="UTF-8"?>
<svg width="1000" height="1000" version="1.1" xmlns="http://www.w3.org/2000/svg">
 <g transform="matrix(1.1081 0 0 1.1081 -53.743 -55.272)">
  <path d="m467.52 61.805c76.79-5.8226 155.09 8.8134 224.4 42.462 70.156 33.833 131.06 86.617 174.43 151.32 43.61 64.426 69.424 140.67 74.12 218.32 3.563 57.934-4.009 116.62-23.072 171.49-26.109 76.485-74.077 145.2-136.39 196.6-33.055 27.281-70.069 49.809-109.59 66.411-52.535 22.13-109.42 33.942-166.43 34.345-66.377 0.992-132.93-13.481-192.92-41.899-71.022-33.373-132.69-86.225-176.77-151.13-48.414-70.744-75.236-155.97-76.163-241.69-1.0107-61.702 11.104-123.64 35.563-180.32 38.876-91.153 109.62-168.23 197.04-214.87 54.106-29.192 114.46-46.668 175.78-51.044z"/>
  <path d="m474.36 66.365c88.915-5.4813 179.38 17.156 255.02 64.282 62.858 38.826 115.56 93.873 151.6 158.37 33.205 59.125 52.199 126.17 54.935 193.93 2.672 61.633-7.775 123.85-30.85 181.09-29.953 74.886-81.246 141.03-146.21 188.81-38.874 28.715-82.554 50.94-128.71 65.28-57.987 18.183-119.8 23.744-180.14 16.828-63.703-7.226-125.7-28.862-180.06-62.856-64.436-40.046-118.1-97.204-154.03-164.03-39.356-72.875-57.052-157.16-50.528-239.71 5.4746-74.53 30.773-147.48 72.55-209.44 30.514-45.457 69.616-85.152 114.69-116.23 65.054-45.127 142.66-71.951 221.74-76.319z" fill="#f4c00e"/>
  <path d="m466.45 104.6c51.104-4.119 103.02 1.572 151.93 16.988 73.675 23.046 140.21 68.24 188.88 128.15 45.7 55.705 75.731 124.11 85.692 195.48 9.37 66.88 1.939 136.18-22.505 199.21-18.448 47.908-46.269 92.199-81.461 129.58-32.003 33.975-69.906 62.444-111.67 83.319-83.136 42.185-181.35 53.04-271.88 31.196-71.605-17.098-138.09-54.782-189.75-107.21-28.297-28.614-52.278-61.511-70.718-97.288-46.367-88.931-56.775-195.71-29.007-292.03 16.423-58.098 46.629-112.14 86.988-157 41.967-46.583 95.017-83.154 153.61-105.52 35.189-13.523 72.343-21.712 109.89-24.872z"/>
  <path d="m467.43 109.56c20.775-1.838 41.71-1.44 62.492 0.102 77.436 5.692 152.73 35.606 213.39 84.008 29.117 23.408 55.349 50.616 76.696 81.328 22.825 32.133 40.833 67.748 52.745 105.33 5.031 15.056 9.033 30.451 11.972 46.052 3.975 21.98 6.939 44.238 6.972 66.61 1.56 63.821-12.848 128.03-41.697 184.99-29.471 58.705-73.966 109.74-128.06 146.98-70.607 49.262-157.98 73.797-243.91 68.942-67.671-3.505-134.46-24.721-191.34-61.645-62.216-39.616-112.6-97.371-143.93-164.1-29.332-62.38-41.672-132.59-35.505-201.23 3.625-41.376 13.771-82.205 30.2-120.37 15.965-37.016 37.577-71.628 63.945-102.13 32.038-36.968 70.903-68.057 114.22-90.825 14.342-7.935 29.58-14.077 44.731-20.264 6.477-2.107 12.868-4.469 19.325-6.643 28.511-8.908 57.954-14.832 87.748-17.132z" fill="#2274bb"/>
  <g fill="none" stroke="#000" stroke-width="3.5">
   <g fill="#018002">
    <path d="m495.34 867.28c36.431-0.245 49.095-135.89 44.09-163.26-4.446-24.307-67.81-13.732-74.122-0.957-13.976 28.285-6.398 164.46 30.032 164.22z"/>
    <path d="m857.8 616.31c9.02-35.298-118.96-82.012-146.7-84.126-24.639-1.877-30.511 62.095-19.76 71.446 23.807 20.704 157.44 47.977 166.46 12.68z"/>
    <path d="m138.49 606.65c16.008 32.726 143.74-14.642 166.24-31.014 19.98-14.538-17.009-67.061-31.257-67.214-31.548-0.339-150.99 65.502-134.98 98.228z"/>
    <path d="m279.65 192.17c-30.191 20.392 34.431 140.32 53.764 160.33 17.169 17.771 64.056-26.142 62.232-40.274-4.04-31.291-85.805-140.45-116-120.06z"/>
    <path d="m730.58 198.54c-30.822-19.421-114.57 88.031-125.1 113.78-9.351 22.872 49.728 48.103 61.928 40.741 27.013-16.3 93.998-135.1 63.174-154.52z"/>
   </g>
   <path d="m498.8 136.5c6.908 7.071 14.632 13.709 24.061 17.123 11.705 4.289 24.36 3.788 36.613 4.634 26.571 1.548 53.342 1.52 79.652 5.939 16.706 2.984 34.242 8.849 45.174 22.605 6.824 8.883 13.244 19.892 10.908 31.538-3.02 14.829-12.438 27.254-21.608 38.896-12.972 16.564-28.37 31.31-39.302 49.406-4.57 7.244-6.961 16.775-3.029 24.822 5.159 11.709 20.741 17.333 32.123 11.386 8.048-4.048 12.113-12.574 16.178-20.134 10.724-20.427 14.45-43.771 25.756-63.919 5.914-10.841 16.214-19.505 28.43-22.135 9.69-2.71 20.397-1.464 29.112 3.604 12.993 7.252 21.817 19.795 29.364 32.25 12.088 20.512 20.176 42.99 30.265 64.481 3.256 6.531 6.54 13.204 11.457 18.68 7.443 7.605 14.963 15.236 23.752 21.317-5.009 8.002-9.193 16.788-10.186 26.286-1.546 11.346 1.776 22.51 4.113 33.504 4.743 21.484 10.268 42.802 14.248 64.449 2.821 16.477 5.129 33.624 1.147 50.112-3.25 13.757-12.375 25.78-24.199 33.367-9.565 5.288-21.084 3.5-31.195 0.937-21.437-5.819-40.914-16.815-61.202-25.561-9.45-3.868-19.256-8.198-29.691-7.686-8.68 0.186-17.219 5.235-21.071 13.095-3.636 6.972-3.718 15.913 0.558 22.629 3.13 5.024 8.388 8.42 13.99 10.106 15.147 4.869 31.163 5.898 46.954 6.689 14.272 0.893 28.984 1.307 42.412 6.768 14.626 6.016 25.06 20.711 26.29 36.413 0.538 10.275-3.196 20.298-8.492 28.952-13.892 21.964-34.784 38.091-54.684 54.291-9.837 8.229-20.425 15.816-28.638 25.76-8.034 11.336-15.33 24.152-16.116 38.335-5.36-1.028-10.743-2.088-16.212-2.187-10.348-0.331-20.518 2.889-29.438 7.981-24.766 14.068-48.577 29.794-73.762 43.13-13.486 6.809-27.719 13.06-42.943 14.35-13.293 1.107-26.667-3.309-37.363-11.1-5.286-3.826-8.646-9.78-10.292-16-3.348-12.489-2.097-25.582-0.62-38.252 2.587-22.212 8.61-44.121 8.116-66.617-0.05-7.307-2.441-15.368-8.804-19.617-10.629-7.651-27.22-3.558-33.426 7.878-4.042 6.882-3.231 15.152-2.784 22.779 1.556 25.112 11.105 49.319 9.826 74.649-1.09 16.036-10.376 31.499-24.61 39.206-9.788 5.169-21.412 5.324-32.03 3.049-15.609-3.501-29.993-10.856-43.736-18.832-17.066-9.948-33.052-21.64-50.229-31.401-9.184-5.356-19.704-7.831-30.161-9.159-7.031-0.861-14.24-0.808-21.123 0.997-1.015-7.94-2.423-15.989-6.125-23.174-5.734-12.115-16.898-20.16-26.895-28.538-17.233-14.369-35.04-28.072-51.64-43.184-11.88-11.136-23.785-23.122-30.183-38.376-5.461-12.553-5.38-27.154-0.802-39.952 0.196-0.421 0.588-1.262 0.784-1.682 0.694-1.367 1.394-2.722 2.126-4.055 0.156-0.172 0.468-0.517 0.624-0.691 10.335-11.81 25.843-16.953 40.48-21.121 21.348-6.021 43.591-8.951 64.334-17.02 7.581-2.692 14.99-8.101 17.081-16.245 3.463-12.319-4.757-26.452-17.175-29.539-5.361-1.481-11.028-0.547-16.116 1.46-15.297 5.685-28.818 15.035-42.077 24.36-10.788 7.411-21.808 14.989-34.429 18.907-10.454 3.253-22.023 1.906-31.742-2.992-0.32-0.163-0.96-0.49-1.28-0.654-4.49-2.486-8.62-5.68-11.893-9.648-8.211-9.978-10.729-23.321-10.943-35.924-0.321-26.389 7.047-51.982 12.838-77.496 2.16-10.006 4.77-20.092 4.558-30.4-0.981-13.073-3.06-26.686-10.52-37.8 8.744-3.33 17.318-7.721 23.839-14.576 8.051-7.806 12.215-18.436 17.032-28.324 10.281-20.981 19.528-42.48 30.721-63.008 7.74-13.782 16.366-27.709 29.192-37.345 10.674-8.335 24.668-11.74 38.054-10.719 7.26 0.723 13.538 4.988 18.786 9.791 6.595 6.339 11.748 13.965 16.61 21.664 10.044 16.916 17.817 35.055 27.644 52.088 3.314 5.575 6.734 11.184 11.238 15.896 4.672 4.915 11.45 8.128 18.323 7.421 10.72-0.826 20.168-9.637 21.811-20.244 0.988-6.23-0.902-12.637-4.492-17.744-12.315-18.658-30.784-31.785-46.726-47.064-9.145-8.964-17.801-19.604-19.838-32.637-1.827-12.304 1.588-25.779 10.237-34.937 9.595-10.247 23.444-15.01 36.855-17.828 30.316-6.326 61.461-2.908 92.093-5.691 9.324-0.919 18.113-4.545 26.427-8.687 6.661-3.557 12.988-8.057 17.636-14.085z" fill="#fff"/>
   <path d="m400.13 317.38c-0.688-16.667-28.448-56.631-33.865-56.868"/>
   <path d="m415.14 314.82c2.692-16.729-21.554-62.091-26.8-61.34"/>
   <path d="m432.4 310.03c1.077-13.737-10.615-51.485-21.971-63.257"/>
   <path d="m449.65 307.16c-1.014-12.589-12.398-57.073-18.227-64.217"/>
   <path d="m483.2 302.68c-0.852-11.128-4.862-49.2-10.868-62.939"/>
   <path d="m499.02 314.67c0.07-23.25 0.34-116.25 0.41-139.5"/>
   <path d="m465.94 304.28c-1.216-10.542-6.757-49.306-14.972-63.257"/>
   <path d="m616.06 316.48c-0.265-16.683 29.004-58.579 35.194-59.208"/>
   <path d="m598.7 315.02c-4.14-16.501 20.765-63.528 26.818-63.16"/>
   <path d="m578.64 311.48c-2.101-13.632 8.907-52.152 21.168-64.724"/>
   <path d="m558.06 309.22c0.365-12.637 10.594-57.857 16.818-65.409"/>
   <path d="m520 305.6c0.273-11.168 2.463-49.455 8.472-63.6"/>
   <path d="m540.18 307.54c0.727-10.609 4.625-49.697 13.152-64.216"/>
   <path d="m664.54 355.9c16.085-5.807 49.056-42.095 48.125-46.809"/>
   <path d="m670.24 367.96c16.871-2.932 55.852-37.9 53.996-42.157"/>
   <path d="m678.61 381.24c13.61-3.378 47.868-25.21 56.898-38.622"/>
   <path d="m685.11 395.11c12.046-4.808 52.93-28.486 58.638-35.715"/>
   <path d="m696.66 422.44c10.656-4.213 46.876-19.567 58.969-29.012"/>
   <path d="m689.16 438.28c22.35-6.724 111.75-33.63 134.1-40.354"/>
   <path d="m691.4 408.17c10.008-4.343 46.575-21.224 58.4-32.627"/>
   <path d="m714.18 538.33c16.224-4.268 62.936 11.184 64.785 16.442"/>
   <path d="m712.14 522.8c15.273-7.613 66.123 2.781 66.969 8.164"/>
   <path d="m711.59 504.4c12.88-5.136 52.658-4.834 67.368 2.845"/>
   <path d="m709.69 485.86c12.404-2.739 58.562-4.739 67.172-1.123"/>
   <path d="m705.64 451.7c10.95-2.464 48.741-9.816 63.741-7.984"/>
   <path d="m707.77 469.82c10.496-1.932 49.411-7.984 65.276-4.041"/>
   <path d="m681.98 590.44c10.679 12.903 54.999 29.721 59.027 26.981"/>
   <path d="m672.78 600.6c8.294 14.78 53.394 37.797 56.696 34.363"/>
   <path d="m663.34 613.74c7.624 11.524 39.073 35.267 54.407 38.503"/>
   <path d="m652.73 625.36c8.42 9.479 43.764 38.753 52.308 41.291"/>
   <path d="m631.42 647.06c7.412 8.402 33.553 36.556 46.253 44.252"/>
   <path d="m612.75 646.07c14.159 18.555 70.798 92.769 84.955 111.32"/>
   <path d="m642.81 636.46c7.314 7.739 34.976 35.616 49.389 42.286"/>
   <path d="m527.91 704.68c9.705 13.686 11.676 62.848 7.404 66.428"/>
   <path d="m541.73 697.32c12.5 11.619 20.662 62.873 15.922 65.561"/>
   <path d="m558.76 690.32c9.34 10.251 23.052 47.591 21.04 64.063"/>
   <path d="m575.44 682.02c6.928 10.647 25.04 53.151 24.685 62.482"/>
   <path d="m605.99 666.21c6.159 9.383 26.338 42.171 29.902 56.858"/>
   <path d="m589.78 674.58c5.501 9.146 24.857 43.443 26.749 59.68"/>
   <path d="m466.83 702.65c-9.119 13.025-11.841 59.931-8.007 63.361"/>
   <path d="m454.35 695.57c-11.633 11.046-20.047 59.927-15.768 62.507"/>
   <path d="m438.93 688.84c-8.721 9.751-21.944 45.335-20.416 61.059"/>
   <path d="m424.62 680.66c-6.525 10.136-23.863 50.633-23.715 59.537"/>
   <path d="m397.45 663.92c-5.8 8.933-24.841 40.153-28.371 54.155"/>
   <path d="m392.77 645.35c-13.475 17.553-67.365 87.771-80.84 105.32"/>
   <path d="m411.02 673.06c-5.195 8.71-23.514 41.371-25.547 56.859"/>
   <path d="m311.14 573.26c-10.16 12.22-56.576 23.742-61.288 20.234"/>
   <path d="m322.36 585.42c-7.341 14.569-53.892 32.593-57.89 28.451"/>
   <path d="m334.18 600.82c-6.986 11.191-38.556 31.968-54.914 33.197"/>
   <path d="m347.14 615.62c-8.092 8.894-43.275 35.008-52.304 36.478"/>
   <path d="m371.47 642.62c-7.116 7.892-32.385 34.144-45.353 40.515"/>
   <path d="m358.58 628.3c-7.087 7.197-34.047 32.934-49.003 37.962"/>
   <path d="m269.31 521.5c-13.975-3.637-56.368 9.763-58.407 14.292"/>
   <path d="m272.32 508.13c-12.875-6.516-58.523 2.541-59.69 7.176"/>
   <path d="m274.24 492.3c-10.957-4.391-46.056-4.043-59.625 2.597"/>
   <path d="m277.74 476.96c-10.722-2.328-51.269-3.947-59.142-0.818"/>
   <path d="m285.47 447.4c-9.464-2.096-42.215-8.337-55.584-6.728"/>
   <path d="m300.73 437.03c-19.141-5.945-95.716-29.721-114.86-35.667"/>
   <path d="m280.91 462.42c-9.105-1.639-42.948-6.76-57.244-3.332"/>
   <path d="m343.31 340.92c-13.532-4.827-35.985-41.791-34.108-47.119"/>
   <path d="m335.45 354.89c-14.877-1.555-43.142-36.448-40.513-41.361"/>
   <path d="m324.88 370.47c-11.783-2.379-38.552-23.164-43.949-37.143"/>
   <path d="m315.14 386.87c-10.032-4.126-42.493-26.291-46.176-33.743"/>
   <path d="m297.56 417.37c-8.884-3.604-38.861-17-47.933-26.267"/>
   <path d="m306.89 401.2c-8.26-3.812-38.224-18.87-46.627-30.338"/>
   <path d="m419.11 333.63c15.921-2.524 32.318 1.056 46.618 8.19 12.387 6.309 23.606 14.85 33.092 25.006 12.01-12.653 26.487-23.31 43.008-29.226 15.15-5.623 32.13-6.324 47.614-1.606 16.165 4.835 30.474 14.654 42.284 26.547 14.496 13.825 26.308 30.76 32.809 49.799 8.449 23.701 8.751 49.708 3.816 74.2-6.825 33.506-22.803 64.524-42.765 92.045-33.216 45.291-77.427 81.989-126.57 108.89-11.5-5.651-22.242-12.759-32.98-19.728-32.595-21.994-62.271-48.548-86.663-79.446-21.477-27.426-39.157-58.409-47.955-92.302-6.501-25.227-7.762-52.283-0.34-77.456 5.852-20.91 18.05-39.623 33.439-54.783 14.736-14.967 33.431-27.233 54.595-30.131z" fill="#d92b3a"/>
  </g>
  <path d="m474.78 385.3c17.288 0.172 34.579 1e-3 51.868 0.074-0.034 15.886 0.395 52.114 0.85 54.311 18.928 8e-3 37.858-0.087 56.788 0.028 0.2 18.569-0.038 37.141 0.116 55.712-19.208 0.06-38.427-0.287-57.626 0.177-0.34 50.316-0.053 100.64-0.15 150.96-18.087-0.079-36.174-0.066-54.259-2e-3 -0.164-44.186-0.031-88.374-0.069-132.56-0.075-6.948 0.312-13.911-0.298-20.841-9.978-0.78-20.001-0.187-29.998-0.38-8.71-0.294-17.42 1.088-26.103-0.079-0.489-10.892-0.089-21.8-0.216-32.699 0.148-7.19-0.421-14.418 0.497-21.572 13.94 0.078 27.882 0.035 41.824 0.044 5.515-0.036 11.05 0.255 16.547-0.364 0.087-17.6-0.404-35.22 0.229-52.806z"/>
 </g>
</svg>
