<?xml version="1.0" encoding="UTF-8" standalone="no"?>
<svg
   xmlns:dc="http://purl.org/dc/elements/1.1/"
   xmlns:cc="http://creativecommons.org/ns#"
   xmlns:rdf="http://www.w3.org/1999/02/22-rdf-syntax-ns#"
   xmlns:svg="http://www.w3.org/2000/svg"
   xmlns="http://www.w3.org/2000/svg"
   xmlns:sodipodi="http://sodipodi.sourceforge.net/DTD/sodipodi-0.dtd"
   xmlns:inkscape="http://www.inkscape.org/namespaces/inkscape"
   width="180mm"
   height="180mm"
   viewBox="0 0 180 180"
   version="1.1"
   id="svg1097"
   inkscape:version="1.0.2 (e86c870879, 2021-01-15)"
   sodipodi:docname="viet.svg">
  <defs
     id="defs1091">
    <filter
       inkscape:label="Fat Oil"
       inkscape:menu="Bevels"
       inkscape:menu-tooltip="Fat oil with some adjustable turbulence"
       height="1.4"
       width="1.4"
       y="-0.2"
       x="-0.2"
       style="color-interpolation-filters:sRGB;"
       id="filter1209">
      <feTurbulence
         numOctaves="3"
         seed="55"
         type="fractalNoise"
         baseFrequency="0.02"
         id="feTurbulence1187" />
      <feGaussianBlur
         stdDeviation="1"
         result="result91"
         id="feGaussianBlur1189" />
      <feDisplacementMap
         scale="15"
         yChannelSelector="G"
         xChannelSelector="R"
         in="SourceGraphic"
         in2="result91"
         id="feDisplacementMap1191" />
      <feGaussianBlur
         stdDeviation="1.5"
         result="result92"
         id="feGaussianBlur1193" />
      <feComposite
         result="fbSourceGraphic"
         k4="-0.3"
         k3="1"
         k2="1"
         operator="arithmetic"
         in2="result92"
         id="feComposite1195" />
      <feGaussianBlur
         stdDeviation="3.5"
         in="fbSourceGraphic"
         result="result0"
         id="feGaussianBlur1197" />
      <feSpecularLighting
         in="result0"
         result="result1"
         lighting-color="rgb(255,255,255)"
         surfaceScale="3"
         specularConstant="1"
         specularExponent="55"
         id="feSpecularLighting1201">
        <feDistantLight
           azimuth="235"
           elevation="65"
           id="feDistantLight1199" />
      </feSpecularLighting>
      <feComposite
         in2="fbSourceGraphic"
         in="result1"
         result="result2"
         operator="in"
         id="feComposite1203" />
      <feComposite
         in="fbSourceGraphic"
         result="result4"
         operator="arithmetic"
         k2="0.4"
         k3="1.7"
         in2="result2"
         id="feComposite1205" />
      <feBlend
         result="fbSourceGraphic"
         mode="normal"
         in2="result2"
         id="feBlend1207" />
    </filter>
    <filter
       inkscape:menu-tooltip="Bright metallic effect for any color"
       inkscape:menu="Bevels"
       inkscape:label="Bright Metal"
       style="color-interpolation-filters:sRGB;"
       id="filter1231">
      <feGaussianBlur
         result="result6"
         stdDeviation="8"
         in="SourceGraphic"
         id="feGaussianBlur1211" />
      <feComposite
         in2="SourceGraphic"
         in="result6"
         operator="xor"
         result="result10"
         id="feComposite1213" />
      <feGaussianBlur
         result="result2"
         stdDeviation="8"
         id="feGaussianBlur1215" />
      <feComposite
         in2="SourceGraphic"
         operator="atop"
         in="result10"
         result="result91"
         id="feComposite1217" />
      <feComposite
         result="result4"
         in="result2"
         operator="xor"
         in2="result91"
         id="feComposite1219" />
      <feGaussianBlur
         in="result4"
         result="result3"
         stdDeviation="4"
         id="feGaussianBlur1221" />
      <feSpecularLighting
         result="result5"
         specularExponent="5"
         specularConstant="1.1"
         surfaceScale="18"
         id="feSpecularLighting1225">
        <feDistantLight
           azimuth="235"
           elevation="55"
           id="feDistantLight1223" />
      </feSpecularLighting>
      <feComposite
         in="result3"
         k3="1.1"
         k2="0.5"
         operator="arithmetic"
         result="result7"
         in2="result5"
         k1="0.5"
         id="feComposite1227" />
      <feComposite
         in="result7"
         operator="atop"
         in2="SourceGraphic"
         result="result8"
         id="feComposite1229" />
    </filter>
  </defs>
  <sodipodi:namedview
     id="base"
     pagecolor="#ffffff"
     bordercolor="#666666"
     borderopacity="1.0"
     inkscape:pageopacity="0.0"
     inkscape:pageshadow="2"
     inkscape:zoom="0.7"
     inkscape:cx="393.54363"
     inkscape:cy="321.02595"
     inkscape:document-units="mm"
     inkscape:current-layer="layer1"
     inkscape:document-rotation="0"
     showgrid="false"
     fit-margin-top="0"
     fit-margin-left="0"
     fit-margin-right="0"
     fit-margin-bottom="0"
     inkscape:window-width="1920"
     inkscape:window-height="1014"
     inkscape:window-x="0"
     inkscape:window-y="0"
     inkscape:window-maximized="1" />
  <metadata
     id="metadata1094">
    <rdf:RDF>
      <cc:Work
         rdf:about="">
        <dc:format>image/svg+xml</dc:format>
        <dc:type
           rdf:resource="http://purl.org/dc/dcmitype/StillImage" />
        <dc:title></dc:title>
      </cc:Work>
    </rdf:RDF>
  </metadata>
  <g
     inkscape:label="Layer 1"
     inkscape:groupmode="layer"
     id="layer1"
     transform="translate(-1.7082476,-2.7523606)">
    <path
       style="fill:#be0000;stroke-width:0.264583;fill-opacity:1;filter:url(#filter1231)"
       d="m 86.084086,170.1906 c -13.69158,-1.43608 -26.49232,-5.73669 -35.85104,-12.04473 -11.99399,-8.08428 -22.09359,-19.49407 -28.18837,-31.84514 -2.9714,-6.02155 -5.43657,-13.5541 -6.58549,-20.12254 -0.43493,-2.4865 -0.54997,-6.376392 -0.20465,-6.919722 0.14499,-0.22812 2.5436,-0.39722 8.39647,-0.59193 4.50642,-0.14992 9.40002,-0.34414 10.87465,-0.43161 l 2.68115,-0.15903 0.16021,-0.96883 c 0.0881,-0.53286 0.16152,-2.7194 0.16312,-4.85898 0.003,-3.93247 -0.20806,-5.059252 -1.00462,-5.364922 -0.84331,-0.32361 -8.36823,-0.656098 -14.96774,-0.66135 l -6.84715,-0.0055 0.19094,-2.447396 c 0.2166,-2.77629 0.64972,-5.3719 1.45608,-8.726158 4.41843,-18.379353 15.05512,-34.300504 30.30352,-45.358722 8.26134,-5.99116 18.95188,-10.685933 29.05264,-12.758521 6.67508,-1.369669 7.9764,-1.486088 16.455705,-1.472171 8.806329,0.01445 11.283949,0.295936 18.648469,2.118641 22.01324,5.448239 40.78427,20.687549 50.33321,40.863125 4.75846,10.053969 7.31522,18.582495 7.42991,24.783763 l 0.053,2.865197 -9.3927,0.159512 c -13.58565,0.230719 -13.40075,0.133546 -13.28398,6.981302 0.0372,2.18443 0.12791,4.16599 0.20147,4.40348 0.15628,0.50449 1.53654,0.60754 14.00467,1.0456 4.3635,0.15331 7.99094,0.33605 8.06098,0.40609 0.07,0.07 0.17195,1.282252 0.22647,2.693812 0.27185,7.03812 -4.71489,21.85728 -10.47929,31.14145 -7.9778,12.84907 -18.6561,22.69502 -31.61841,29.15382 -10.84677,5.40467 -21.26108,7.94309 -33.390039,8.13863 -3.20146,0.0516 -6.297095,0.0439 -6.879175,-0.0172 z m 11.509385,-12.65643 c 12.771239,-1.24305 23.877659,-5.62099 34.461839,-13.58422 3.54496,-2.66713 3.56233,-2.71622 1.60984,-4.55142 -1.7836,-1.67646 -3.27883,-2.49689 -4.08454,-2.24117 -0.29861,0.0948 -2.17566,1.27098 -4.17122,2.61379 -7.26761,4.89038 -17.09389,9.06515 -23.47501,9.97355 -2.978989,0.42408 -3.601499,0.12232 -3.884379,-1.88297 -0.11271,-0.79896 -0.27486,-9.46775 -0.36034,-19.26396 -0.15838,-18.14904 0.0947,-27.55944 0.77027,-28.641192 0.67854,-1.08651 1.30529,-1.13319 17.918959,-1.33448 8.80401,-0.10667 16.54307,-0.30028 17.19791,-0.43025 2.9302,-0.58154 3.25498,-1.17145 3.12993,-5.68505 -0.10726,-3.87191 -0.29423,-4.42699 -1.71888,-5.10303 -1.7995,-0.853919 -3.82217,-0.976606 -19.40271,-1.17688 -16.928599,-0.217607 -17.295239,-0.249952 -17.662539,-1.558317 -0.29257,-1.042167 -0.17508,-40.590643 0.13325,-44.850612 0.18741,-2.58933 0.37245,-3.735947 0.62916,-3.898552 0.20001,-0.126697 0.99376,-0.232181 1.763879,-0.234409 4.31523,-0.01249 14.18945,3.443163 21.08937,7.380576 4.40809,2.51546 4.744,2.66954 5.81972,2.66954 0.64835,0 1.15118,-0.199967 1.57925,-0.628042 0.94902,-0.949015 2.06004,-3.305119 1.88583,-3.999214 -0.61425,-2.447369 -14.43075,-9.378647 -23.25079,-11.664149 -6.54264,-1.695368 -17.371139,-2.116881 -25.923434,-1.009103 -6.09403,0.789358 -10.40904,2.190134 -17.85076,5.794857 -8.87018,4.296667 -14.62336,8.289211 -14.62336,10.148206 0,0.913863 3.49672,3.738695 4.62794,3.738695 0.30559,0 2.03844,-0.971971 3.85081,-2.159934 5.80447,-3.804704 11.45917,-6.517666 18.00664,-8.639063 4.00758,-1.298468 6.0066,-1.700017 7.91044,-1.588992 2.40561,0.140287 2.26118,-1.589212 2.1722,26.011417 -0.0422,13.095436 -0.16128,23.8836 -0.26459,23.973696 -0.1033,0.0901 -8.51434,0.371308 -18.6912,0.624916 -10.17685,0.253606 -18.66911,0.524704 -18.87168,0.602436 -0.30664,0.11767 -0.33713,1.054498 -0.18212,5.595408 0.1024,2.99975 0.20076,5.47245 0.21856,5.49492 0.0178,0.0225 5.09253,0.11913 11.27716,0.21483 11.88542,0.1839 22.03813,0.53376 24.16242,0.83262 1.81596,0.25549 2.01515,0.68115 2.33293,4.985342 0.37546,5.08549 0.16163,43.36368 -0.24901,44.57546 -0.37626,1.11035 -0.70039,1.33226 -1.95352,1.33747 -4.79667,0.0199 -16.46488,-4.49918 -24.11059,-9.33807 -3.01769,-1.90985 -3.94855,-2.22846 -4.82775,-1.65239 -0.89108,0.58387 -2.17337,2.39962 -2.48073,3.51281 -0.46796,1.69481 0.0223,2.26291 4.16093,4.82188 5.54134,3.42626 13.33866,6.82365 19.10491,8.32423 7.99661,2.081 14.538485,2.63697 22.225005,1.88882 z m 14.737449,-20.6256 c 1.31775,-0.64136 3.51176,-1.84204 4.87559,-2.66818 4.1755,-2.52932 9.35999,-6.70378 8.89869,-7.16508 -0.33546,-0.33546 -2.29619,-0.63458 -5.09611,-0.77745 -1.60072,-0.0817 -3.7637,-0.21297 -4.8066,-0.29176 l -1.89619,-0.14326 -0.1575,-2.2946 c -0.0866,-1.26202 -0.22058,-3.15779 -0.29766,-4.21282 l -0.14015,-1.91823 12.77718,0.009 c 12.3924,0.008 16.11095,0.17658 16.68919,0.75482 0.35068,0.35068 -0.97447,3.06416 -3.37166,6.90407 -0.95204,1.52501 -1.73098,2.93971 -1.73098,3.14377 0,1.3078 2.81709,3.74077 4.33136,3.74077 1.53087,0 4.51343,-3.94666 7.52117,-9.95238 2.21215,-4.41713 3.27593,-7.57638 3.42877,-10.18289 l 0.13346,-2.27591 -17.74612,-0.1944 c -17.82641,-0.19528 -24.97093,-0.0795 -26.29655,0.42598 -1.22041,0.46541 -1.32513,1.77913 -1.22639,15.38475 0.0488,6.72035 0.185,12.36764 0.30273,12.54954 0.37324,0.5767 1.34411,0.3637 3.80777,-0.83539 z m -37.418934,0.17393 c 0.37432,-0.84012 0.47648,-24.08644 0.11338,-25.79887 -0.41954,-1.97865 0.16915,-1.90505 -16.04928,-2.00644 -14.95727,-0.0935 -27.62431,0.23657 -28.5735,0.74456 -1.64532,0.88055 0.32116,6.80538 4.964,14.95607 1.95112,3.42528 3.94822,6.25035 7.37939,10.43879 0.0541,0.066 0.87648,-0.6581 1.82754,-1.60916 2.74405,-2.74405 2.66024,-3.60073 -0.89354,-9.13442 -2.38335,-3.71118 -3.62163,-6.16281 -3.28351,-6.50093 0.5944,-0.5944 4.94153,-0.73955 17.02971,-0.5686 l 12.61708,0.17842 0.18047,1.68516 c 0.27189,2.53888 0.0453,4.72591 -0.55997,5.40504 -0.94981,1.06571 -2.1575,1.35022 -6.49716,1.53063 -5.31613,0.22101 -5.77191,0.49289 -4.03996,2.40995 2.84827,3.15269 12.37452,8.96822 14.72702,8.99046 0.54941,0.005 0.81573,-0.17615 1.05833,-0.72066 z m 0.45648,-75.736969 c 0,-11.783653 -0.0623,-14.287501 -0.35546,-14.287501 -3.07955,0 -16.57788,8.668595 -16.57788,10.646279 0,0.67687 2.2083,1.216014 6.3288,1.54514 5.67148,0.453009 5.21309,0.291682 5.40662,1.902836 0.0914,0.761129 0.16727,2.192954 0.16853,3.181834 0.002,1.543677 -0.087,1.887215 -0.62874,2.42901 -1.24814,1.248135 -2.12215,1.329277 -14.31792,1.329277 -10.85488,0 -13.8279,-0.132127 -14.66895,-0.651925 -0.52076,-0.321853 0.57651,-2.861474 2.84082,-6.575042 2.88949,-4.738878 2.71396,-4.191005 1.64168,-5.124016 -1.63813,-1.425353 -3.24545,-2.333392 -4.13036,-2.333392 -0.68135,0 -1.06743,0.245022 -1.92977,1.22469 -2.15322,2.446189 -5.36937,8.205266 -7.96737,14.266956 -1.48486,3.464517 -1.72253,4.390612 -1.31986,5.143002 0.76805,1.435116 2.07711,1.515491 25.33538,1.555578 l 20.17448,0.03477 z m 78.509884,12.501563 c -0.16678,-2.090579 -0.76861,-3.636449 -3.6641,-9.411687 -3.80687,-7.593016 -8.9535,-14.982236 -10.74911,-15.432903 -0.80406,-0.201806 -1.50482,0.52247 -2.58482,2.671537 -1.20797,2.403735 -0.84259,3.657005 2.30861,7.918631 2.14015,2.894301 3.47016,5.51793 3.49626,6.896862 0.0185,0.979985 -0.0362,1.056008 -0.9063,1.259028 -0.98161,0.229031 -26.88919,0.303546 -27.2535,0.07838 -0.11762,-0.07269 -0.28736,-1.292852 -0.37723,-2.711474 -0.0899,-1.418624 -0.2295,-3.323458 -0.3103,-4.232963 l -0.14693,-1.653646 4.32054,-0.0213 c 2.3763,-0.01172 4.85632,-0.160538 5.51117,-0.330729 1.02918,-0.267478 1.20248,-0.413356 1.27809,-1.075851 0.0734,-0.643258 -0.1674,-1.008931 -1.49857,-2.275634 -3.12355,-2.972261 -11.50163,-7.930621 -13.56689,-8.029224 -0.77642,-0.03707 -0.88822,0.05217 -1.10842,0.884815 -0.1347,0.509323 -0.30224,6.849401 -0.37231,14.089063 l -0.1274,13.163021 h 22.94684 22.94684 l -0.14247,-1.785937 z"
       id="path1113" />
    <path
       style="fill:#be0000;stroke-width:0.264583;fill-opacity:1;filter:url(#filter1209)"
       d="m 86.084086,170.1906 c -13.69158,-1.43608 -26.49232,-5.73669 -35.85104,-12.04473 -11.99399,-8.08428 -22.09359,-19.49407 -28.18837,-31.84514 -2.9714,-6.02155 -5.43657,-13.5541 -6.58549,-20.12254 -0.43493,-2.4865 -0.54997,-6.376392 -0.20465,-6.919722 0.14499,-0.22812 2.5436,-0.39722 8.39647,-0.59193 4.50642,-0.14992 9.40002,-0.34414 10.87465,-0.43161 l 2.68115,-0.15903 0.16021,-0.96883 c 0.0881,-0.53286 0.16152,-2.7194 0.16312,-4.85898 0.003,-3.93247 -0.20806,-5.059252 -1.00462,-5.364922 -0.84331,-0.32361 -8.36823,-0.656098 -14.96774,-0.66135 l -6.84715,-0.0055 0.19094,-2.447396 c 0.2166,-2.77629 0.64972,-5.3719 1.45608,-8.726158 4.41843,-18.379353 15.05512,-34.300504 30.30352,-45.358722 8.26134,-5.99116 18.95188,-10.685933 29.05264,-12.758521 6.67508,-1.369669 7.9764,-1.486088 16.455705,-1.472171 8.806329,0.01445 11.283949,0.295936 18.648469,2.118641 22.01324,5.448239 40.78427,20.687549 50.33321,40.863125 4.75846,10.053969 7.31522,18.582495 7.42991,24.783763 l 0.053,2.865197 -9.3927,0.159512 c -13.58565,0.230719 -13.40075,0.133546 -13.28398,6.981302 0.0372,2.18443 0.12791,4.16599 0.20147,4.40348 0.15628,0.50449 1.53654,0.60754 14.00467,1.0456 4.3635,0.15331 7.99094,0.33605 8.06098,0.40609 0.07,0.07 0.17195,1.282252 0.22647,2.693812 0.27185,7.03812 -4.71489,21.85728 -10.47929,31.14145 -7.9778,12.84907 -18.6561,22.69502 -31.61841,29.15382 -10.84677,5.40467 -21.26108,7.94309 -33.390039,8.13863 -3.20146,0.0516 -6.297095,0.0439 -6.879175,-0.0172 z m 11.509385,-12.65643 c 12.771239,-1.24305 23.877659,-5.62099 34.461839,-13.58422 3.54496,-2.66713 3.56233,-2.71622 1.60984,-4.55142 -1.7836,-1.67646 -3.27883,-2.49689 -4.08454,-2.24117 -0.29861,0.0948 -2.17566,1.27098 -4.17122,2.61379 -7.26761,4.89038 -17.09389,9.06515 -23.47501,9.97355 -2.978989,0.42408 -3.601499,0.12232 -3.884379,-1.88297 -0.11271,-0.79896 -0.27486,-9.46775 -0.36034,-19.26396 -0.15838,-18.14904 0.0947,-27.55944 0.77027,-28.641192 0.67854,-1.08651 1.30529,-1.13319 17.918959,-1.33448 8.80401,-0.10667 16.54307,-0.30028 17.19791,-0.43025 2.9302,-0.58154 3.25498,-1.17145 3.12993,-5.68505 -0.10726,-3.87191 -0.29423,-4.42699 -1.71888,-5.10303 -1.7995,-0.853919 -3.82217,-0.976606 -19.40271,-1.17688 -16.928599,-0.217607 -17.295239,-0.249952 -17.662539,-1.558317 -0.29257,-1.042167 -0.17508,-40.590643 0.13325,-44.850612 0.18741,-2.58933 0.37245,-3.735947 0.62916,-3.898552 0.20001,-0.126697 0.99376,-0.232181 1.763879,-0.234409 4.31523,-0.01249 14.18945,3.443163 21.08937,7.380576 4.40809,2.51546 4.744,2.66954 5.81972,2.66954 0.64835,0 1.15118,-0.199967 1.57925,-0.628042 0.94902,-0.949015 2.06004,-3.305119 1.88583,-3.999214 -0.61425,-2.447369 -14.43075,-9.378647 -23.25079,-11.664149 -6.54264,-1.695368 -17.371139,-2.116881 -25.923434,-1.009103 -6.09403,0.789358 -10.40904,2.190134 -17.85076,5.794857 -8.87018,4.296667 -14.62336,8.289211 -14.62336,10.148206 0,0.913863 3.49672,3.738695 4.62794,3.738695 0.30559,0 2.03844,-0.971971 3.85081,-2.159934 5.80447,-3.804704 11.45917,-6.517666 18.00664,-8.639063 4.00758,-1.298468 6.0066,-1.700017 7.91044,-1.588992 2.40561,0.140287 2.26118,-1.589212 2.1722,26.011417 -0.0422,13.095436 -0.16128,23.8836 -0.26459,23.973696 -0.1033,0.0901 -8.51434,0.371308 -18.6912,0.624916 -10.17685,0.253606 -18.66911,0.524704 -18.87168,0.602436 -0.30664,0.11767 -0.33713,1.054498 -0.18212,5.595408 0.1024,2.99975 0.20076,5.47245 0.21856,5.49492 0.0178,0.0225 5.09253,0.11913 11.27716,0.21483 11.88542,0.1839 22.03813,0.53376 24.16242,0.83262 1.81596,0.25549 2.01515,0.68115 2.33293,4.985342 0.37546,5.08549 0.16163,43.36368 -0.24901,44.57546 -0.37626,1.11035 -0.70039,1.33226 -1.95352,1.33747 -4.79667,0.0199 -16.46488,-4.49918 -24.11059,-9.33807 -3.01769,-1.90985 -3.94855,-2.22846 -4.82775,-1.65239 -0.89108,0.58387 -2.17337,2.39962 -2.48073,3.51281 -0.46796,1.69481 0.0223,2.26291 4.16093,4.82188 5.54134,3.42626 13.33866,6.82365 19.10491,8.32423 7.99661,2.081 14.538485,2.63697 22.225005,1.88882 z m 14.737449,-20.6256 c 1.31775,-0.64136 3.51176,-1.84204 4.87559,-2.66818 4.1755,-2.52932 9.35999,-6.70378 8.89869,-7.16508 -0.33546,-0.33546 -2.29619,-0.63458 -5.09611,-0.77745 -1.60072,-0.0817 -3.7637,-0.21297 -4.8066,-0.29176 l -1.89619,-0.14326 -0.1575,-2.2946 c -0.0866,-1.26202 -0.22058,-3.15779 -0.29766,-4.21282 l -0.14015,-1.91823 12.77718,0.009 c 12.3924,0.008 16.11095,0.17658 16.68919,0.75482 0.35068,0.35068 -0.97447,3.06416 -3.37166,6.90407 -0.95204,1.52501 -1.73098,2.93971 -1.73098,3.14377 0,1.3078 2.81709,3.74077 4.33136,3.74077 1.53087,0 4.51343,-3.94666 7.52117,-9.95238 2.21215,-4.41713 3.27593,-7.57638 3.42877,-10.18289 l 0.13346,-2.27591 -17.74612,-0.1944 c -17.82641,-0.19528 -24.97093,-0.0795 -26.29655,0.42598 -1.22041,0.46541 -1.32513,1.77913 -1.22639,15.38475 0.0488,6.72035 0.185,12.36764 0.30273,12.54954 0.37324,0.5767 1.34411,0.3637 3.80777,-0.83539 z m -37.418934,0.17393 c 0.37432,-0.84012 0.47648,-24.08644 0.11338,-25.79887 -0.41954,-1.97865 0.16915,-1.90505 -16.04928,-2.00644 -14.95727,-0.0935 -27.62431,0.23657 -28.5735,0.74456 -1.64532,0.88055 0.32116,6.80538 4.964,14.95607 1.95112,3.42528 3.94822,6.25035 7.37939,10.43879 0.0541,0.066 0.87648,-0.6581 1.82754,-1.60916 2.74405,-2.74405 2.66024,-3.60073 -0.89354,-9.13442 -2.38335,-3.71118 -3.62163,-6.16281 -3.28351,-6.50093 0.5944,-0.5944 4.94153,-0.73955 17.02971,-0.5686 l 12.61708,0.17842 0.18047,1.68516 c 0.27189,2.53888 0.0453,4.72591 -0.55997,5.40504 -0.94981,1.06571 -2.1575,1.35022 -6.49716,1.53063 -5.31613,0.22101 -5.77191,0.49289 -4.03996,2.40995 2.84827,3.15269 12.37452,8.96822 14.72702,8.99046 0.54941,0.005 0.81573,-0.17615 1.05833,-0.72066 z m 0.45648,-75.736969 c 0,-11.783653 -0.0623,-14.287501 -0.35546,-14.287501 -3.07955,0 -16.57788,8.668595 -16.57788,10.646279 0,0.67687 2.2083,1.216014 6.3288,1.54514 5.67148,0.453009 5.21309,0.291682 5.40662,1.902836 0.0914,0.761129 0.16727,2.192954 0.16853,3.181834 0.002,1.543677 -0.087,1.887215 -0.62874,2.42901 -1.24814,1.248135 -2.12215,1.329277 -14.31792,1.329277 -10.85488,0 -13.8279,-0.132127 -14.66895,-0.651925 -0.52076,-0.321853 0.57651,-2.861474 2.84082,-6.575042 2.88949,-4.738878 2.71396,-4.191005 1.64168,-5.124016 -1.63813,-1.425353 -3.24545,-2.333392 -4.13036,-2.333392 -0.68135,0 -1.06743,0.245022 -1.92977,1.22469 -2.15322,2.446189 -5.36937,8.205266 -7.96737,14.266956 -1.48486,3.464517 -1.72253,4.390612 -1.31986,5.143002 0.76805,1.435116 2.07711,1.515491 25.33538,1.555578 l 20.17448,0.03477 z m 78.509884,12.501563 c -0.16678,-2.090579 -0.76861,-3.636449 -3.6641,-9.411687 -3.80687,-7.593016 -8.9535,-14.982236 -10.74911,-15.432903 -0.80406,-0.201806 -1.50482,0.52247 -2.58482,2.671537 -1.20797,2.403735 -0.84259,3.657005 2.30861,7.918631 2.14015,2.894301 3.47016,5.51793 3.49626,6.896862 0.0185,0.979985 -0.0362,1.056008 -0.9063,1.259028 -0.98161,0.229031 -26.88919,0.303546 -27.2535,0.07838 -0.11762,-0.07269 -0.28736,-1.292852 -0.37723,-2.711474 -0.0899,-1.418624 -0.2295,-3.323458 -0.3103,-4.232963 l -0.14693,-1.653646 4.32054,-0.0213 c 2.3763,-0.01172 4.85632,-0.160538 5.51117,-0.330729 1.02918,-0.267478 1.20248,-0.413356 1.27809,-1.075851 0.0734,-0.643258 -0.1674,-1.008931 -1.49857,-2.275634 -3.12355,-2.972261 -11.50163,-7.930621 -13.56689,-8.029224 -0.77642,-0.03707 -0.88822,0.05217 -1.10842,0.884815 -0.1347,0.509323 -0.30224,6.849401 -0.37231,14.089063 l -0.1274,13.163021 h 22.94684 22.94684 l -0.14247,-1.785937 z"
       id="path1185" />
  </g>
</svg>
